<svg xmlns="http://www.w3.org/2000/svg" width="68.315" height="74.424" viewBox="0 0 68.315 74.424">
  <g id="ABFRL_Logo" data-name="ABFRL Logo" transform="translate(-1277.685 -23)">
    <g id="ABFRL_New_Logo" data-name="ABFRL_New Logo" transform="translate(1276.945 22.29)">
      <path id="Path_2758" data-name="Path 2758" d="M69.055.71H.74V75.134H69.055Z" transform="translate(0 0)" fill="#fff"/>
      <path id="Path_2759" data-name="Path 2759" d="M101.711,371.891H100.05v6.048h1.661a3.028,3.028,0,1,0,0-6.049m-.519,1.1h.474a1.93,1.93,0,1,1,0,3.854h-.474Z" transform="translate(-87.217 -325.983)" fill="#a21f1c"/>
      <path id="Path_2760" data-name="Path 2760" d="M151.106,371.9H149.95v6.048h1.156Z" transform="translate(-131.038 -325.992)" fill="#a21f1c"/>
      <path id="Path_2761" data-name="Path 2761" d="M168.28,373h1.69v4.951h1.142V373h1.675v-1.1H168.28Z" transform="translate(-147.139 -325.992)" fill="#a21f1c"/>
      <path id="Path_2762" data-name="Path 2762" d="M212.206,371.9l-1.393,2.415L209.4,371.9h-1.3l2.134,3.646v2.4h1.142v-2.4l2.1-3.646Z" transform="translate(-182.111 -325.992)" fill="#a21f1c"/>
      <path id="Path_2763" data-name="Path 2763" d="M325.063,374.736a1.552,1.552,0,0,0,.43-1.141,1.674,1.674,0,0,0-1.868-1.7H321.49v6.048h2.253a1.8,1.8,0,0,0,2.016-1.808,1.57,1.57,0,0,0-.7-1.393m-1.482-1.764c.519,0,.77.207.77.652s-.208.652-.681.652H322.63v-1.3Zm-.934,2.371h1.038c.608,0,.934.251.934.756s-.3.756-.92.756h-1.053Z" transform="translate(-281.692 -325.983)" fill="#a21f1c"/>
      <path id="Path_2764" data-name="Path 2764" d="M367.806,371.9H366.65v6.048h1.156Z" transform="translate(-321.347 -325.992)" fill="#a21f1c"/>
      <path id="Path_2765" data-name="Path 2765" d="M393.276,373.827a1.916,1.916,0,0,0-2.119-1.927H389.23v6.048h1.141v-2.209h.727l1.364,2.209h1.319l-1.526-2.446a1.763,1.763,0,0,0,1.023-1.675m-2.921-.83h.756c.667,0,.992.282.992.845,0,.355-.1.816-.992.816h-.756Z" transform="translate(-341.183 -325.992)" fill="#a21f1c"/>
      <path id="Path_2766" data-name="Path 2766" d="M434.576,371.9H433.42v6.048h3.662v-1.083h-2.505Z" transform="translate(-379.99 -325.992)" fill="#a21f1c"/>
      <path id="Path_2767" data-name="Path 2767" d="M50.52,376.335h1.127l.5-1.245h1.9l.5,1.245h1.142l-2.579-6.255-2.595,6.255Zm2.045-2.267.534-1.319.534,1.319Z" transform="translate(-43.702 -324.394)" fill="#a21f1c"/>
      <path id="Path_2768" data-name="Path 2768" d="M248.77,376.455H249.9l.49-1.245h1.9l.5,1.245h1.142l-2.579-6.255-2.579,6.255Zm2.03-2.253.534-1.319.534,1.319Z" transform="translate(-217.828 -324.499)" fill="#a21f1c"/>
      <path id="Path_2769" data-name="Path 2769" d="M469.36,376.335h1.127l.5-1.245h1.9l.5,1.245h1.142l-2.579-6.255-2.595,6.255Zm2.031-2.267.533-1.319.534,1.319Z" transform="translate(-411.574 -324.394)" fill="#a21f1c"/>
      <path id="Path_2770" data-name="Path 2770" d="M161.61,524.273V518.86h3.426v.6h-2.745v1.995h2.382v.587h-2.382v2.227h-.681Z" transform="translate(-141.28 -455.072)" fill="#a21f1c"/>
      <path id="Path_2771" data-name="Path 2771" d="M188.081,523.878l1.856-5.468h.75l1.863,5.468h-.735l-.464-1.4H189.24l-.464,1.4h-.695Zm1.3-1.956h1.84l-.921-2.869-.921,2.869Z" transform="translate(-164.527 -454.677)" fill="#a21f1c"/>
      <path id="Path_2772" data-name="Path 2772" d="M230.309,518.469l-.139.526c-.093-.03-.2-.061-.317-.089s-.243-.052-.371-.073-.258-.036-.387-.046-.253-.016-.371-.016a1.708,1.708,0,0,0-.94.228.724.724,0,0,0-.352.639.706.706,0,0,0,.077.332.9.9,0,0,0,.251.282,2,2,0,0,0,.464.255c.193.081.429.166.707.259a4.769,4.769,0,0,1,.758.3,2.383,2.383,0,0,1,.51.341,1.062,1.062,0,0,1,.289.411,1.392,1.392,0,0,1,.089.514,1.274,1.274,0,0,1-.248.8,1.539,1.539,0,0,1-.716.5,3.248,3.248,0,0,1-1.133.175c-.149,0-.308-.007-.475-.023s-.338-.038-.511-.066-.339-.062-.5-.1a3.544,3.544,0,0,1-.418-.128l.155-.526c.118.042.253.082.4.12s.3.072.464.1.319.05.475.063.3.02.437.02a2.411,2.411,0,0,0,.753-.1.976.976,0,0,0,.464-.294.715.715,0,0,0,.159-.471.662.662,0,0,0-.093-.348.906.906,0,0,0-.286-.282,3.086,3.086,0,0,0-.5-.255c-.2-.085-.447-.174-.731-.267a4.487,4.487,0,0,1-.7-.3,2.042,2.042,0,0,1-.48-.344,1.163,1.163,0,0,1-.271-.41,1.444,1.444,0,0,1-.085-.511,1.287,1.287,0,0,1,.132-.587,1.352,1.352,0,0,1,.379-.457,1.79,1.79,0,0,1,.623-.3,3.206,3.206,0,0,1,.855-.1,4.8,4.8,0,0,1,.568.034c.2.023.386.052.56.089a4.033,4.033,0,0,1,.448.116Z" transform="translate(-198.339 -454.519)" fill="#a21f1c"/>
      <path id="Path_2773" data-name="Path 2773" d="M265.8,524.273V518.86h.673v2.73h2.83v-2.73h.666v5.413H269.3v-2.081h-2.83v2.081Z" transform="translate(-232.783 -455.072)" fill="#a21f1c"/>
      <path id="Path_2774" data-name="Path 2774" d="M308.86,524.273V518.86h.673v5.413Z" transform="translate(-270.594 -455.072)" fill="#a21f1c"/>
      <path id="Path_2775" data-name="Path 2775" d="M323.866,523.8a3.1,3.1,0,0,1-.743-.085,2.055,2.055,0,0,1-.642-.278,1.8,1.8,0,0,1-.507-.511,2.443,2.443,0,0,1-.329-.788,5.494,5.494,0,0,1,0-2.245,2.552,2.552,0,0,1,.325-.8,1.721,1.721,0,0,1,.5-.51,1.99,1.99,0,0,1,.642-.271,3.375,3.375,0,0,1,.753-.082,3.255,3.255,0,0,1,.758.085,2.061,2.061,0,0,1,.646.271,1.678,1.678,0,0,1,.5.507,2.557,2.557,0,0,1,.325.789,4.714,4.714,0,0,1,.116,1.118,5.079,5.079,0,0,1-.112,1.136,2.506,2.506,0,0,1-.325.8,1.677,1.677,0,0,1-.5.511,2.061,2.061,0,0,1-.646.268,3.379,3.379,0,0,1-.758.082Zm0-.541a2.123,2.123,0,0,0,.514-.063,1.327,1.327,0,0,0,.457-.208,1.344,1.344,0,0,0,.36-.4,2.178,2.178,0,0,0,.243-.647,4.158,4.158,0,0,0,.089-.924,4.23,4.23,0,0,0-.089-.932,2.164,2.164,0,0,0-.243-.643,1.386,1.386,0,0,0-.364-.4,1.336,1.336,0,0,0-.457-.212,2.1,2.1,0,0,0-.51-.062,2.056,2.056,0,0,0-.507.062,1.393,1.393,0,0,0-.453.209,1.353,1.353,0,0,0-.368.406,2.131,2.131,0,0,0-.245.646,4.484,4.484,0,0,0-.085.935,3.955,3.955,0,0,0,.089.912,2.147,2.147,0,0,0,.248.637,1.416,1.416,0,0,0,.364.41,1.29,1.29,0,0,0,.448.212,2.033,2.033,0,0,0,.507.063Z" transform="translate(-281.727 -454.519)" fill="#a21f1c"/>
      <path id="Path_2776" data-name="Path 2776" d="M367.051,524.106V518.67h.634l2.853,4.385v-4.362h.61v5.421h-.642l-2.846-4.346v4.339h-.609Z" transform="translate(-321.703 -454.905)" fill="#a21f1c"/>
      <path id="Path_2777" data-name="Path 2777" d="M396.607,72.706l-7.6,3.5-8.34-10.4,9.313-15.181h6.624Z" transform="translate(-333.713 -43.825)" fill="#a21f1c"/>
      <path id="Path_2778" data-name="Path 2778" d="M456.577,244.393V231.43l-7.6,3.5Z" transform="translate(-393.682 -202.635)" fill="#e26820"/>
      <path id="Path_2779" data-name="Path 2779" d="M293,65.811,280.81,50.63h21.507Z" transform="translate(-245.999 -43.825)" fill="#e26820"/>
      <path id="Path_2780" data-name="Path 2780" d="M289.65,71.369l3.339-5.448L280.81,50.74V68.922h.081A16.609,16.609,0,0,1,289.65,71.369Z" transform="translate(-245.978 -43.921)" fill="#fdcc5a"/>
      <path id="Path_2781" data-name="Path 2781" d="M280.891,199.54h-.081V216.4l8.841-14.4a16.779,16.779,0,0,0-8.76-2.46" transform="translate(-245.972 -174.632)" fill="#a21f1c"/>
      <path id="Path_2782" data-name="Path 2782" d="M359.753,187.735l5.15-2.38-8.341-10.4-3.353,5.462A16.98,16.98,0,0,1,359.753,187.735Z" transform="translate(-309.564 -153.039)" fill="#e26820"/>
      <path id="Path_2783" data-name="Path 2783" d="M289.641,219.69,280.8,234.1l15.383-7.1a16.978,16.978,0,0,0-6.543-7.314" transform="translate(-245.976 -192.326)" fill="#c8191c"/>
      <path id="Path_2784" data-name="Path 2784" d="M411.95,260.1l-5.15,2.38a16.792,16.792,0,0,1,1.568,7.1h11.179l-7.6-9.476" transform="translate(-356.652 -227.81)" fill="#fdcc5a"/>
      <path id="Path_2785" data-name="Path 2785" d="M280.81,286.576h16.939a16.872,16.872,0,0,0-1.554-7.1l-15.383,7.1" transform="translate(-245.988 -244.827)" fill="#a21f1c"/>
      <path id="Path_2786" data-name="Path 2786" d="M50.52,72.706l7.6,3.5,8.341-10.4L57.144,50.63H50.52Z" transform="translate(-43.702 -43.825)" fill="#a21f1c"/>
      <path id="Path_2787" data-name="Path 2787" d="M50.52,244.393V231.43l7.6,3.5Z" transform="translate(-43.702 -202.635)" fill="#e26820"/>
      <path id="Path_2788" data-name="Path 2788" d="M114.084,65.811,126.264,50.63H104.77Z" transform="translate(-91.375 -43.825)" fill="#e26820"/>
      <path id="Path_2789" data-name="Path 2789" d="M184.389,71.369l-3.339-5.448L193.23,50.74V68.922h-.081A16.678,16.678,0,0,0,184.389,71.369Z" transform="translate(-158.362 -43.921)" fill="#c8191c"/>
      <path id="Path_2790" data-name="Path 2790" d="M217.247,199.54h.081V216.4L208.5,202a16.727,16.727,0,0,1,8.746-2.46" transform="translate(-182.466 -174.632)" fill="#e26820"/>
      <path id="Path_2791" data-name="Path 2791" d="M117.89,187.735l-5.15-2.38,8.341-10.4,3.339,5.448A16.975,16.975,0,0,0,117.89,187.735Z" transform="translate(-98.366 -153.039)" fill="#e26820"/>
      <path id="Path_2792" data-name="Path 2792" d="M161.459,219.681l8.841,14.41-15.37-7.1a16.858,16.858,0,0,1,6.53-7.314" transform="translate(-135.424 -192.317)" fill="#c8191c"/>
      <path id="Path_2793" data-name="Path 2793" d="M58.117,260.1l5.15,2.38a16.79,16.79,0,0,0-1.568,7.1H50.52l7.6-9.476" transform="translate(-43.702 -227.81)" fill="#fdcc5a"/>
      <path id="Path_2794" data-name="Path 2794" d="M159.019,286.568H142.08a16.688,16.688,0,0,1,1.568-7.1l15.37,7.1" transform="translate(-124.14 -244.818)" fill="#a21f1c"/>
      <path id="Path_2795" data-name="Path 2795" d="M205.14,466.98H223.7v.673H205.14Z" transform="translate(-179.529 -409.483)" fill="#a21f1c"/>
    </g>
  </g>
</svg>
